<svg xmlns="http://www.w3.org/2000/svg" width="32" height="32" viewBox="0 0 32 32" role="img" aria-label="">
  <defs>
    <linearGradient id="g" x1="0" y1="0" x2="1" y2="1">
      <stop offset="0%" stop-color="#0d9488"/>
      <stop offset="100%" stop-color="#14b8a6"/>
    </linearGradient>
  </defs>
  <rect width="32" height="32" rx="8" fill="url(#g)"/>
  <path d="M15 8h2a1 1 0 0 1 1 1v5h5a1 1 0 0 1 1 1v2a1 1 0 0 1-1 1h-5v5a1 1 0 0 1-1 1h-2a1 1 0 0 1-1-1v-5H9a1 1 0 0 1-1-1v-2a1 1 0 0 1 1-1h5V9a1 1 0 0 1 1-1z" fill="#ffffff"/>
</svg>